<?xml version="1.0" encoding="utf-8"?>
<!-- Generator: Adobe Illustrator 24.1.0, SVG Export Plug-In . SVG Version: 6.00 Build 0)  -->
<svg version="1.1" id="Layer_1" xmlns="http://www.w3.org/2000/svg" xmlns:xlink="http://www.w3.org/1999/xlink" x="0px" y="0px"
	 viewBox="0 0 1200 1800" style="enable-background:new 0 0 1200 1800;" xml:space="preserve">
<style type="text/css">
	.st0{fill:#FFFFFF;}
</style>
<path class="st0" d="M589.1,745.9c27.2,27.2,55.6,55.6,84.2,84.2c-73.8,0-147.7,0-221.7,0c0,12.1,0,23.7,0,36
	c74.4,0,148.6,0,222.8,0c-28.5,29.2-56.7,58-83.2,85.2c7.6,8.4,15.6,17.3,23.1,25.6c43.4-43.2,86.3-86,129.8-129.4
	c-43.4-42.5-87-85.1-131-128.2C606.2,726.9,598.2,735.8,589.1,745.9z"/>
<path class="st0" d="M589.1,745.9c9.1-10.1,17.2-19,24-26.6c44,43.1,87.6,85.7,131,128.2c-43.6,43.4-86.5,86.2-129.8,129.4
	c-7.5-8.3-15.5-17.2-23.1-25.6c26.5-27.2,54.7-56,83.2-85.2c-74.3,0-148.4,0-222.8,0c0-12.3,0-23.9,0-36c74,0,147.9,0,221.7,0
	C644.7,801.5,616.3,773.1,589.1,745.9z"/>
</svg>
